<mxfile host="Electron" modified="2023-10-15T13:12:46.122Z" agent="Mozilla/5.0 (Windows NT 10.0; Win64; x64) AppleWebKit/537.36 (KHTML, like Gecko) draw.io/22.0.2 Chrome/114.0.5735.289 Electron/25.8.4 Safari/537.36" etag="5uMcjyR0T-3O47b8-Unz" version="22.0.2" type="device">
  <diagram name="Page-1" id="BkRTfp19kBKwIyYqM-AD">
    <mxGraphModel dx="794" dy="511" grid="1" gridSize="10" guides="1" tooltips="1" connect="1" arrows="1" fold="1" page="1" pageScale="1" pageWidth="850" pageHeight="1100" math="0" shadow="0">
      <root>
        <mxCell id="0" />
        <mxCell id="1" parent="0" />
        <mxCell id="dfF-nycy5Q88bQn4yUDD-3" value="music-reproduce.com" style="html=1;strokeWidth=1;shadow=0;dashed=0;shape=mxgraph.ios7ui.url;fillColor=#e0e0e0;strokeColor=#c0c0c0;buttonText=;strokeColor2=#222222;fontColor=#222222;fontSize=8;spacingTop=2;align=center;whiteSpace=wrap;" vertex="1" parent="1">
          <mxGeometry x="20" y="220" width="130" height="12.5" as="geometry" />
        </mxCell>
        <mxCell id="dfF-nycy5Q88bQn4yUDD-4" value="" style="image;aspect=fixed;html=1;points=[];align=center;fontSize=12;image=img/lib/azure2/other/Windows_Notification_Services.svg;" vertex="1" parent="1">
          <mxGeometry x="30" y="250" width="68" height="68" as="geometry" />
        </mxCell>
        <mxCell id="dfF-nycy5Q88bQn4yUDD-5" value="ChatGPT&lt;br&gt;&lt;br&gt;Languages&lt;br&gt;(Channel)&lt;br&gt;&lt;br&gt;Actors&lt;br&gt;(PlayList)&lt;br&gt;&lt;br&gt;Directors&lt;br&gt;(PlayList)" style="rounded=0;whiteSpace=wrap;html=1;" vertex="1" parent="1">
          <mxGeometry x="200" y="200" width="120" height="220" as="geometry" />
        </mxCell>
        <mxCell id="dfF-nycy5Q88bQn4yUDD-6" value="StreamLit or&lt;br&gt;&amp;nbsp;any UI layer" style="rounded=0;whiteSpace=wrap;html=1;" vertex="1" parent="1">
          <mxGeometry x="200" y="450" width="120" height="60" as="geometry" />
        </mxCell>
        <mxCell id="dfF-nycy5Q88bQn4yUDD-7" value="" style="endArrow=classic;html=1;rounded=0;" edge="1" parent="1">
          <mxGeometry width="50" height="50" relative="1" as="geometry">
            <mxPoint x="110" y="280" as="sourcePoint" />
            <mxPoint x="180" y="280" as="targetPoint" />
          </mxGeometry>
        </mxCell>
        <mxCell id="dfF-nycy5Q88bQn4yUDD-8" value="Log in" style="text;html=1;align=center;verticalAlign=middle;resizable=0;points=[];autosize=1;strokeColor=none;fillColor=none;" vertex="1" parent="1">
          <mxGeometry x="110" y="250" width="60" height="30" as="geometry" />
        </mxCell>
        <mxCell id="dfF-nycy5Q88bQn4yUDD-10" value="Music - channels" style="rounded=0;whiteSpace=wrap;html=1;" vertex="1" parent="1">
          <mxGeometry x="340" y="200" width="120" height="40" as="geometry" />
        </mxCell>
        <mxCell id="dfF-nycy5Q88bQn4yUDD-11" value="Scrape list" style="text;html=1;align=center;verticalAlign=middle;resizable=0;points=[];autosize=1;strokeColor=none;fillColor=none;" vertex="1" parent="1">
          <mxGeometry x="360" y="170" width="80" height="30" as="geometry" />
        </mxCell>
        <mxCell id="dfF-nycy5Q88bQn4yUDD-12" value="Thumnails of movie/actor/director" style="rounded=0;whiteSpace=wrap;html=1;" vertex="1" parent="1">
          <mxGeometry x="340" y="255" width="120" height="58" as="geometry" />
        </mxCell>
        <mxCell id="dfF-nycy5Q88bQn4yUDD-13" value="Dynamic DJ" style="rounded=0;whiteSpace=wrap;html=1;" vertex="1" parent="1">
          <mxGeometry x="340" y="330" width="120" height="40" as="geometry" />
        </mxCell>
        <mxCell id="dfF-nycy5Q88bQn4yUDD-14" value="VidText" style="rounded=0;whiteSpace=wrap;html=1;" vertex="1" parent="1">
          <mxGeometry x="340" y="380" width="120" height="40" as="geometry" />
        </mxCell>
        <mxCell id="dfF-nycy5Q88bQn4yUDD-15" value="" style="endArrow=classic;html=1;rounded=0;" edge="1" parent="1">
          <mxGeometry width="50" height="50" relative="1" as="geometry">
            <mxPoint x="470" y="220" as="sourcePoint" />
            <mxPoint x="580" y="220" as="targetPoint" />
          </mxGeometry>
        </mxCell>
        <mxCell id="dfF-nycy5Q88bQn4yUDD-16" value="Music" style="text;html=1;align=center;verticalAlign=middle;resizable=0;points=[];autosize=1;strokeColor=none;fillColor=none;" vertex="1" parent="1">
          <mxGeometry x="207.5" y="570" width="50" height="30" as="geometry" />
        </mxCell>
        <mxCell id="dfF-nycy5Q88bQn4yUDD-17" value="Thumbnail" style="text;html=1;align=center;verticalAlign=middle;resizable=0;points=[];autosize=1;strokeColor=none;fillColor=none;" vertex="1" parent="1">
          <mxGeometry x="302.5" y="570" width="80" height="30" as="geometry" />
        </mxCell>
        <mxCell id="dfF-nycy5Q88bQn4yUDD-18" value="Dynamic DJ" style="text;html=1;align=center;verticalAlign=middle;resizable=0;points=[];autosize=1;strokeColor=none;fillColor=none;" vertex="1" parent="1">
          <mxGeometry x="412.5" y="570" width="90" height="30" as="geometry" />
        </mxCell>
        <mxCell id="dfF-nycy5Q88bQn4yUDD-19" value="VidText" style="text;html=1;align=center;verticalAlign=middle;resizable=0;points=[];autosize=1;strokeColor=none;fillColor=none;" vertex="1" parent="1">
          <mxGeometry x="532.5" y="570" width="60" height="30" as="geometry" />
        </mxCell>
        <mxCell id="dfF-nycy5Q88bQn4yUDD-20" value="pydub" style="text;html=1;align=center;verticalAlign=middle;resizable=0;points=[];autosize=1;strokeColor=none;fillColor=none;" vertex="1" parent="1">
          <mxGeometry x="570" y="140" width="60" height="30" as="geometry" />
        </mxCell>
        <mxCell id="dfF-nycy5Q88bQn4yUDD-21" value="" style="endArrow=classic;html=1;rounded=0;" edge="1" parent="1">
          <mxGeometry width="50" height="50" relative="1" as="geometry">
            <mxPoint x="470" y="283.5" as="sourcePoint" />
            <mxPoint x="580" y="283.5" as="targetPoint" />
          </mxGeometry>
        </mxCell>
        <mxCell id="dfF-nycy5Q88bQn4yUDD-22" value="pillow" style="text;html=1;align=center;verticalAlign=middle;resizable=0;points=[];autosize=1;strokeColor=none;fillColor=none;" vertex="1" parent="1">
          <mxGeometry x="500" y="250" width="50" height="30" as="geometry" />
        </mxCell>
        <mxCell id="dfF-nycy5Q88bQn4yUDD-23" value="" style="endArrow=classic;html=1;rounded=0;" edge="1" parent="1">
          <mxGeometry width="50" height="50" relative="1" as="geometry">
            <mxPoint x="470" y="349.5" as="sourcePoint" />
            <mxPoint x="580" y="349.5" as="targetPoint" />
          </mxGeometry>
        </mxCell>
        <mxCell id="dfF-nycy5Q88bQn4yUDD-24" value="moviePy" style="text;html=1;align=center;verticalAlign=middle;resizable=0;points=[];autosize=1;strokeColor=none;fillColor=none;" vertex="1" parent="1">
          <mxGeometry x="490" y="320" width="70" height="30" as="geometry" />
        </mxCell>
        <mxCell id="dfF-nycy5Q88bQn4yUDD-25" value="" style="endArrow=classic;html=1;rounded=0;" edge="1" parent="1">
          <mxGeometry width="50" height="50" relative="1" as="geometry">
            <mxPoint x="470" y="400" as="sourcePoint" />
            <mxPoint x="580" y="400" as="targetPoint" />
          </mxGeometry>
        </mxCell>
        <mxCell id="dfF-nycy5Q88bQn4yUDD-26" value="chatGPT" style="text;html=1;align=center;verticalAlign=middle;resizable=0;points=[];autosize=1;strokeColor=none;fillColor=none;" vertex="1" parent="1">
          <mxGeometry x="490" y="370" width="70" height="30" as="geometry" />
        </mxCell>
        <mxCell id="dfF-nycy5Q88bQn4yUDD-30" value="" style="endArrow=none;html=1;rounded=0;" edge="1" parent="1">
          <mxGeometry width="50" height="50" relative="1" as="geometry">
            <mxPoint x="600" y="420" as="sourcePoint" />
            <mxPoint x="600" y="200" as="targetPoint" />
          </mxGeometry>
        </mxCell>
        <mxCell id="dfF-nycy5Q88bQn4yUDD-31" value="MoviePy" style="text;html=1;strokeColor=none;fillColor=none;align=center;verticalAlign=middle;whiteSpace=wrap;rounded=0;" vertex="1" parent="1">
          <mxGeometry x="570" y="160" width="60" height="50" as="geometry" />
        </mxCell>
        <mxCell id="dfF-nycy5Q88bQn4yUDD-32" value="" style="endArrow=classic;html=1;rounded=0;" edge="1" parent="1">
          <mxGeometry width="50" height="50" relative="1" as="geometry">
            <mxPoint x="610" y="310" as="sourcePoint" />
            <mxPoint x="780" y="310" as="targetPoint" />
          </mxGeometry>
        </mxCell>
        <mxCell id="dfF-nycy5Q88bQn4yUDD-34" value="Pytube&lt;br&gt;8d-audio" style="text;html=1;align=center;verticalAlign=middle;resizable=0;points=[];autosize=1;strokeColor=none;fillColor=none;" vertex="1" parent="1">
          <mxGeometry x="490" y="180" width="70" height="40" as="geometry" />
        </mxCell>
        <mxCell id="dfF-nycy5Q88bQn4yUDD-35" value="youtube-upload-api-client" style="text;html=1;align=center;verticalAlign=middle;resizable=0;points=[];autosize=1;strokeColor=none;fillColor=none;" vertex="1" parent="1">
          <mxGeometry x="610" y="280" width="160" height="30" as="geometry" />
        </mxCell>
        <mxCell id="dfF-nycy5Q88bQn4yUDD-36" value="destination&amp;nbsp;&lt;br&gt;YT Channel" style="rounded=0;whiteSpace=wrap;html=1;" vertex="1" parent="1">
          <mxGeometry x="790" y="280" width="120" height="60" as="geometry" />
        </mxCell>
        <mxCell id="dfF-nycy5Q88bQn4yUDD-37" value="VidFlow" style="text;html=1;align=center;verticalAlign=middle;resizable=0;points=[];autosize=1;strokeColor=none;fillColor=none;" vertex="1" parent="1">
          <mxGeometry x="28" y="570" width="70" height="30" as="geometry" />
        </mxCell>
        <mxCell id="dfF-nycy5Q88bQn4yUDD-38" value="ShortsFlow" style="text;html=1;align=center;verticalAlign=middle;resizable=0;points=[];autosize=1;strokeColor=none;fillColor=none;" vertex="1" parent="1">
          <mxGeometry x="24" y="690" width="80" height="30" as="geometry" />
        </mxCell>
      </root>
    </mxGraphModel>
  </diagram>
</mxfile>
